<svg width="83" height="82" viewBox="0 0 83 82" fill="none" xmlns="http://www.w3.org/2000/svg">
<path d="M41.5 82C64.4198 82 83 63.6437 83 41C83 18.3563 64.4198 0 41.5 0C18.5802 0 0 18.3563 0 41C0 63.6437 18.5802 82 41.5 82Z" fill="black"/>
<path d="M44.5625 28.3594C44.5625 29.002 44.7461 29.5527 45.2051 29.9199C45.5723 30.3789 46.123 30.5625 46.7656 30.5625H59.25V60.6719C59.25 61.3145 58.9746 61.8652 58.6074 62.2324C58.1484 62.6914 57.5977 62.875 57.0469 62.875H26.2031C25.5605 62.875 25.0098 62.6914 24.6426 62.2324C24.1836 61.8652 24 61.3145 24 60.6719V18.0781C24 17.5273 24.1836 16.9766 24.6426 16.5176C25.0098 16.1504 25.5605 15.875 26.2031 15.875H44.5625V28.3594ZM51.5391 47.7285C51.998 47.3613 52.0898 46.8105 51.9062 46.168C51.6309 45.6172 51.1719 45.25 50.5293 45.25H44.5625V37.9062C44.5625 37.5391 44.3789 37.1719 44.1035 36.8965C43.8281 36.6211 43.4609 36.4375 43.0938 36.4375H40.1562C39.6973 36.4375 39.3301 36.6211 39.0547 36.8965C38.7793 37.1719 38.6875 37.5391 38.6875 37.9062V45.25H32.7207C31.9863 45.25 31.5273 45.6172 31.3438 46.168C31.0684 46.8105 31.1602 47.3613 31.7109 47.7285L40.5234 56.541C40.7988 56.9082 41.166 57 41.625 57C41.9922 57 42.3594 56.9082 42.7266 56.541L51.5391 47.7285ZM58.6074 25.5137C58.9746 25.9727 59.25 26.5234 59.25 27.0742V27.625H47.5V15.875H48.0508C48.6016 15.875 49.1523 16.1504 49.6113 16.5176L58.6074 25.5137Z" fill="#F9F9F9"/>
</svg>
