<svg width="53" height="52" viewBox="0 0 53 52" fill="none" xmlns="http://www.w3.org/2000/svg">
<path d="M26.5 51.0863C40.7791 51.0863 52.3546 39.6502 52.3546 25.5431C52.3546 11.436 40.7791 0 26.5 0C12.2209 0 0.645386 11.436 0.645386 25.5431C0.645386 39.6502 12.2209 51.0863 26.5 51.0863Z" fill="black"/>
<path d="M22.5576 32.964C22.5576 32.964 22.5107 32.9171 22.4639 32.8702C22.417 32.8702 22.3701 32.8234 22.2764 32.8234C22.0889 32.8234 22.042 32.9171 22.042 33.0109C22.042 33.1515 22.0889 33.1984 22.2764 33.1984C22.4639 33.1984 22.5576 33.1046 22.5576 32.964ZM21.1045 32.7765C21.1045 32.6827 21.1982 32.6359 21.3857 32.6827C21.5264 32.7296 21.5732 32.7765 21.5732 32.8702C21.5732 32.964 21.5264 33.0109 21.4795 33.0109C21.3857 33.0577 21.3389 33.0577 21.292 33.0109C21.1982 33.0109 21.1514 32.964 21.1045 32.9171C21.0576 32.8702 21.0576 32.8234 21.1045 32.7765ZM23.167 32.6827C23.3076 32.6827 23.4014 32.7296 23.4014 32.8234C23.4014 32.9171 23.3545 33.0109 23.2139 33.0577C23.1201 33.0577 23.0732 33.0577 23.0264 33.0577C22.9795 33.0577 22.9326 32.964 22.9326 32.8702C22.9326 32.7765 22.9795 32.7296 23.167 32.6827ZM26.2607 14.7296C28.3701 14.7296 30.3389 15.2452 32.167 16.2296C33.9482 17.2609 35.4014 18.6202 36.4326 20.3077C37.4639 22.089 38.0264 24.0577 38.0264 26.1671C38.0264 28.7921 37.2764 31.089 35.8232 33.1515C34.3701 35.214 32.4951 36.6202 30.1514 37.3702C29.8701 37.464 29.6826 37.4171 29.542 37.2765C29.4014 37.1827 29.3545 36.9952 29.3545 36.8077V32.8702C29.3545 31.8859 29.0732 31.1827 28.5576 30.714C29.6826 30.6202 30.5732 30.4327 31.1357 30.2452C31.9795 29.964 32.6826 29.4952 33.1514 28.839C33.667 28.0421 33.9482 26.9171 33.9482 25.5109C33.9482 24.9484 33.8076 24.4327 33.6201 23.964C33.4326 23.6827 33.1514 23.2609 32.7295 22.7921C32.8232 22.5109 32.917 22.1359 32.9639 21.6671C32.9639 21.0109 32.8701 20.3077 32.6357 19.6046C32.3076 19.5109 31.8857 19.6046 31.3232 19.7921C30.9482 19.9796 30.4795 20.1671 30.0107 20.4484L29.4014 20.8702C28.417 20.589 27.4326 20.4484 26.4014 20.4484C25.3701 20.4484 24.4326 20.589 23.4951 20.8702L22.8857 20.4484C22.3701 20.1671 21.9014 19.9796 21.5264 19.7921C20.9639 19.6046 20.542 19.5109 20.2607 19.6046C19.9795 20.3077 19.8389 21.0109 19.9326 21.6671C19.9326 22.1359 19.9795 22.464 20.1201 22.7452C19.7451 23.214 19.4639 23.6827 19.2764 24.0577C19.0889 24.4327 19.042 24.9484 19.042 25.5109C19.042 26.9171 19.2764 28.0421 19.792 28.7921C20.2139 29.4484 20.8701 29.964 21.7607 30.2452C22.3232 30.4327 23.167 30.6202 24.292 30.714C23.8701 31.089 23.6357 31.6515 23.542 32.3077C22.9795 32.589 22.4639 32.6827 21.9951 32.589C21.1514 32.5421 20.542 32.1202 20.1201 31.3234C19.9326 30.9952 19.6514 30.714 19.3701 30.4796C19.1357 30.3859 18.9014 30.2452 18.667 30.1515L18.3389 30.1046C17.9639 30.1046 17.7764 30.1984 17.7764 30.2921C17.7764 30.3859 17.8232 30.5265 18.0107 30.6202L18.2451 30.8077C18.4326 30.9484 18.667 31.1359 18.9014 31.4171C19.0889 31.6515 19.2295 31.8859 19.3701 32.1671L19.5576 32.5421C19.6982 33.0109 19.9795 33.3859 20.4482 33.6202C20.8232 33.8546 21.2451 33.9952 21.8076 34.0421C22.1826 34.089 22.5576 34.089 22.9795 33.9952L23.4951 33.9484L23.542 36.8077C23.542 36.9952 23.4482 37.1827 23.3076 37.2765C23.167 37.4171 22.9795 37.464 22.7451 37.3702C20.3545 36.6202 18.4326 35.214 16.9795 33.1515C15.4795 31.089 14.7764 28.7921 14.7764 26.1671C14.7764 24.0577 15.2451 22.1359 16.2764 20.3546C17.2607 18.6202 18.6201 17.2609 20.4014 16.2296C22.1357 15.2452 24.1045 14.7296 26.2607 14.7296ZM19.3232 30.9015C19.3701 30.8546 19.4639 30.8546 19.5576 30.9484C19.6514 31.0421 19.6514 31.1359 19.6045 31.1827C19.5107 31.2765 19.4639 31.2296 19.3701 31.1359C19.2764 31.0421 19.2295 30.9952 19.3232 30.9015ZM18.8076 30.5265C18.8545 30.4796 18.9482 30.4796 19.042 30.5265C19.1357 30.5734 19.1357 30.6202 19.1357 30.714C19.0889 30.8077 18.9951 30.8077 18.9014 30.714C18.8076 30.6671 18.7607 30.6202 18.8076 30.5265ZM20.3545 32.1671C20.3545 32.1671 20.4014 32.1671 20.4951 32.1671C20.542 32.1671 20.5889 32.214 20.6357 32.2609C20.6826 32.3077 20.7295 32.3546 20.7295 32.4015C20.7295 32.4952 20.7295 32.5421 20.7295 32.5421C20.6357 32.6359 20.4951 32.6359 20.4014 32.4952C20.3076 32.4484 20.3076 32.4015 20.3076 32.3077C20.3076 32.2609 20.3076 32.214 20.3545 32.1671ZM19.792 31.5109C19.8389 31.5109 19.8857 31.5109 19.9326 31.5109C19.9795 31.5109 20.0264 31.5577 20.0732 31.6046C20.167 31.7452 20.167 31.839 20.0732 31.8859C20.0264 31.9327 19.9795 31.9327 19.9326 31.8859C19.8857 31.8859 19.8389 31.839 19.792 31.7921C19.6982 31.6515 19.6982 31.5577 19.792 31.5109Z" fill="#F9F9F9"/>
</svg>
