<svg width="52" height="52" viewBox="0 0 52 52" fill="none" xmlns="http://www.w3.org/2000/svg">
<path d="M25.8546 51.4409C40.1338 51.4409 51.7093 40.0048 51.7093 25.8977C51.7093 11.7907 40.1338 0.354614 25.8546 0.354614C11.5755 0.354614 0 11.7907 0 25.8977C0 40.0048 11.5755 51.4409 25.8546 51.4409Z" fill="black"/>
<path d="M25.5 20.964C26.4375 20.964 27.3281 21.2452 28.1719 21.714C29.0156 22.1827 29.6719 22.839 30.1406 23.6827C30.6094 24.5265 30.8906 25.4171 30.8906 26.3546C30.8906 27.339 30.6094 28.2296 30.1406 29.0734C29.6719 29.9171 29.0156 30.5734 28.1719 31.0421C27.3281 31.5109 26.4375 31.7452 25.5 31.7452C24.5156 31.7452 23.625 31.5109 22.7812 31.0421C21.9375 30.5734 21.2812 29.9171 20.8125 29.0734C20.3438 28.2296 20.1094 27.339 20.1094 26.3546C20.1094 25.4171 20.3438 24.5265 20.8125 23.6827C21.2812 22.839 21.9375 22.1827 22.7812 21.714C23.625 21.2452 24.5156 20.964 25.5 20.964ZM25.5 29.8702C26.4375 29.8702 27.2812 29.5421 27.9844 28.839C28.6406 28.1827 29.0156 27.339 29.0156 26.3546C29.0156 25.4171 28.6406 24.5734 27.9844 23.8702C27.2812 23.214 26.4375 22.839 25.5 22.839C24.5156 22.839 23.6719 23.214 23.0156 23.8702C22.3125 24.5734 21.9844 25.4171 21.9844 26.3546C21.9844 27.339 22.3125 28.1827 23.0156 28.839C23.6719 29.5421 24.5156 29.8702 25.5 29.8702ZM32.3906 20.7296C32.3906 20.4015 32.25 20.1202 32.0156 19.839C31.7344 19.6046 31.4531 19.464 31.125 19.464C30.75 19.464 30.4688 19.6046 30.2344 19.839C29.9531 20.1202 29.8594 20.4015 29.8594 20.7296C29.8594 21.1046 29.9531 21.3859 30.2344 21.6202C30.4688 21.9015 30.75 21.9952 31.125 21.9952C31.4531 21.9952 31.7344 21.9015 31.9688 21.6202C32.2031 21.3859 32.3438 21.1046 32.3906 20.7296ZM35.9531 21.9952C35.9531 22.8859 36 24.339 36 26.3546C36 28.4171 35.9531 29.8702 35.9062 30.7609C35.8594 31.6515 35.7188 32.4015 35.5312 33.0577C35.25 33.8546 34.7812 34.5577 34.2188 35.1202C33.6562 35.6827 32.9531 36.1046 32.2031 36.3859C31.5469 36.6202 30.75 36.7609 29.8594 36.8077C28.9688 36.8546 27.5156 36.8546 25.5 36.8546C23.4375 36.8546 21.9844 36.8546 21.0938 36.8077C20.2031 36.7609 19.4531 36.6202 18.7969 36.339C18 36.1046 17.2969 35.6827 16.7344 35.1202C16.1719 34.5577 15.75 33.8546 15.4688 33.0577C15.2344 32.4015 15.0938 31.6515 15.0469 30.7609C15 29.8702 15 28.4171 15 26.3546C15 24.339 15 22.8859 15.0469 21.9952C15.0938 21.1046 15.2344 20.3077 15.4688 19.6515C15.75 18.9015 16.1719 18.1984 16.7344 17.6359C17.2969 17.0734 18 16.6046 18.7969 16.3234C19.4531 16.1359 20.2031 15.9952 21.0938 15.9484C21.9844 15.9015 23.4375 15.8546 25.5 15.8546C27.5156 15.8546 28.9688 15.9015 29.8594 15.9484C30.75 15.9952 31.5469 16.1359 32.2031 16.3234C32.9531 16.6046 33.6562 17.0734 34.2188 17.6359C34.7812 18.1984 35.25 18.9015 35.5312 19.6515C35.7188 20.3077 35.8594 21.1046 35.9531 21.9952ZM33.7031 32.5421C33.8906 32.0265 33.9844 31.1827 34.0781 30.0109C34.0781 29.3546 34.125 28.3702 34.125 27.1046V25.6046C34.125 24.339 34.0781 23.3546 34.0781 22.6984C33.9844 21.5265 33.8906 20.6827 33.7031 20.1671C33.3281 19.2296 32.625 18.5265 31.6875 18.1515C31.1719 17.964 30.3281 17.8702 29.1562 17.7765C28.4531 17.7765 27.4688 17.7296 26.25 17.7296H24.75C23.4844 17.7296 22.5 17.7765 21.8438 17.7765C20.6719 17.8702 19.8281 17.964 19.3125 18.1515C18.3281 18.5265 17.6719 19.2296 17.2969 20.1671C17.1094 20.6827 16.9688 21.5265 16.9219 22.6984C16.875 23.4015 16.875 24.3859 16.875 25.6046V27.1046C16.875 28.3702 16.875 29.3546 16.9219 30.0109C16.9688 31.1827 17.1094 32.0265 17.2969 32.5421C17.6719 33.5265 18.375 34.1827 19.3125 34.5577C19.8281 34.7452 20.6719 34.8859 21.8438 34.9327C22.5 34.9796 23.4844 34.9796 24.75 34.9796H26.25C27.5156 34.9796 28.5 34.9796 29.1562 34.9327C30.3281 34.8859 31.1719 34.7452 31.6875 34.5577C32.625 34.1827 33.3281 33.4796 33.7031 32.5421Z" fill="#F9F9F9"/>
</svg>
