<svg width="187" height="187" viewBox="0 0 187 187" fill="none" xmlns="http://www.w3.org/2000/svg">
<g filter="url(#filter0_d)">
<circle cx="93.5" cy="89.5" r="89.5" fill="black"/>
</g>
<path d="M123.188 57.125C125.371 57.125 127.219 57.9648 128.898 59.4766C130.41 61.1562 131.25 63.0039 131.25 65.1875V124.312C131.25 126.664 130.41 128.512 128.898 130.023C127.219 131.703 125.371 132.375 123.188 132.375H64.0625C61.7109 132.375 59.8633 131.703 58.3516 130.023C56.6719 128.512 56 126.664 56 124.312V65.1875C56 63.0039 56.6719 61.1562 58.3516 59.4766C59.8633 57.9648 61.7109 57.125 64.0625 57.125H123.188ZM96.9844 115.746V91.7266H89.9297V115.746C89.9297 117.426 89.5938 118.602 88.9219 119.273C88.25 119.945 87.2422 120.113 86.0664 120.113C84.8906 120.113 84.0508 119.777 83.3789 119.105C82.707 118.77 82.2031 117.93 81.5312 116.586L75.8203 119.945C77.8359 124.312 81.3633 126.496 86.4023 126.496C89.5938 126.496 92.1133 125.656 94.1289 123.809C95.9766 122.129 96.9844 119.441 96.9844 115.746ZM113.613 126.496C116.973 126.496 119.828 125.656 122.012 123.977C124.195 122.297 125.371 119.777 125.371 116.586C125.371 113.898 124.531 111.547 123.02 109.867C121.508 108.523 119.156 107.012 115.965 105.5L114.285 104.828C112.605 104.156 111.43 103.484 110.758 102.812C110.086 102.309 109.918 101.637 109.918 100.629C109.918 99.6211 110.086 98.9492 110.758 98.2773C111.43 97.7734 112.27 97.4375 113.277 97.4375C114.285 97.4375 115.125 97.7734 115.797 98.1094C116.469 98.6133 117.141 99.4531 117.812 100.461L123.355 96.9336C122.18 94.918 120.836 93.5742 119.156 92.5664C117.477 91.7266 115.629 91.2227 113.277 91.2227C110.086 91.2227 107.566 92.2305 105.719 93.9102C103.703 95.7578 102.863 97.9414 102.863 100.629C102.863 103.316 103.535 105.668 105.215 107.348C106.559 108.859 108.574 110.203 111.43 111.211L113.109 112.051C115.125 113.059 116.301 113.73 116.973 114.066C117.812 114.738 118.316 115.746 118.316 116.754C118.316 117.762 117.812 118.602 116.973 119.273C115.965 119.945 114.789 120.281 113.445 120.281C110.59 120.281 108.238 118.938 106.559 115.914L100.848 119.273C101.855 121.457 103.535 123.137 105.551 124.48C107.734 125.824 110.422 126.496 113.613 126.496Z" fill="white"/>
<defs>
<filter id="filter0_d" x="0" y="0" width="187" height="187" filterUnits="userSpaceOnUse" color-interpolation-filters="sRGB">
<feFlood flood-opacity="0" result="BackgroundImageFix"/>
<feColorMatrix in="SourceAlpha" type="matrix" values="0 0 0 0 0 0 0 0 0 0 0 0 0 0 0 0 0 0 127 0"/>
<feOffset dy="4"/>
<feGaussianBlur stdDeviation="2"/>
<feColorMatrix type="matrix" values="0 0 0 0 0 0 0 0 0 0 0 0 0 0 0 0 0 0 0.25 0"/>
<feBlend mode="normal" in2="BackgroundImageFix" result="effect1_dropShadow"/>
<feBlend mode="normal" in="SourceGraphic" in2="effect1_dropShadow" result="shape"/>
</filter>
</defs>
</svg>
