<svg width="52" height="52" viewBox="0 0 52 52" fill="none" xmlns="http://www.w3.org/2000/svg">
<path d="M25.8546 51.4409C40.1338 51.4409 51.7093 40.0048 51.7093 25.8977C51.7093 11.7907 40.1338 0.354614 25.8546 0.354614C11.5755 0.354614 0 11.7907 0 25.8977C0 40.0048 11.5755 51.4409 25.8546 51.4409Z" fill="black"/>
<path d="M19.6875 36.8546V22.839H15.3281V36.8546H19.6875ZM17.5312 20.9171C18.1875 20.9171 18.7969 20.6827 19.3125 20.1671C19.7812 19.6984 20.0625 19.089 20.0625 18.3859C20.0625 17.7296 19.7812 17.1202 19.3125 16.6046C18.7969 16.1359 18.1875 15.8546 17.5312 15.8546C16.8281 15.8546 16.2188 16.1359 15.75 16.6046C15.2344 17.1202 15 17.7296 15 18.3859C15 19.089 15.2344 19.6984 15.75 20.1671C16.2188 20.6827 16.8281 20.9171 17.5312 20.9171ZM36 36.8546V29.1671C36 27.0109 35.6719 25.4171 35.0625 24.3859C34.2188 23.1202 32.8125 22.464 30.7969 22.464C29.7656 22.464 28.9219 22.7452 28.1719 23.214C27.4688 23.6359 26.9531 24.1515 26.6719 24.7609H26.625V22.839H22.4531V36.8546H26.7656V29.9171C26.7656 28.839 26.9062 27.9952 27.2344 27.4327C27.6094 26.6827 28.3125 26.3077 29.3438 26.3077C30.3281 26.3077 30.9844 26.7296 31.3594 27.5734C31.5469 28.089 31.6406 28.8859 31.6406 30.0109V36.8546H36Z" fill="#F9F9F9"/>
</svg>
