<svg width="187" height="187" viewBox="0 0 187 187" fill="none" xmlns="http://www.w3.org/2000/svg">
<g filter="url(#filter0_d)">
<circle cx="93.5" cy="89.5" r="89.5" fill="black"/>
</g>
<path d="M92.75 69.2188V69.3867C83.3438 69.3867 74.7773 70.5625 66.7148 72.9141C58.9883 75.2656 52.9414 78.457 48.5742 82.3203C44.0391 86.3516 41.8555 90.3828 41.8555 94.75C41.8555 99.1172 44.0391 103.316 48.5742 107.18C52.9414 111.211 58.9883 114.234 66.7148 116.586C74.7773 118.938 83.3438 120.113 92.75 120.113C101.988 120.113 110.723 118.938 118.785 116.586C126.344 114.234 132.391 111.211 136.926 107.18C141.293 103.316 143.645 99.1172 143.645 94.75C143.645 90.3828 141.293 86.3516 136.926 82.3203C132.391 78.457 126.344 75.2656 118.785 72.9141C110.723 70.5625 101.988 69.2188 92.75 69.2188ZM92.75 66.5312C102.492 66.5312 111.395 67.875 119.793 70.3945C127.855 72.9141 134.406 76.2734 139.277 80.6406C143.98 85.0078 146.5 89.7109 146.5 94.75C146.5 99.957 143.98 104.66 139.277 109.027C134.406 113.395 127.855 116.754 119.793 119.105C111.395 121.793 102.492 122.969 92.75 122.969C83.0078 122.969 73.9375 121.793 65.707 119.105C57.4766 116.754 50.9258 113.395 46.2227 109.027C41.3516 104.66 39 99.957 39 94.75C39 89.7109 41.3516 85.0078 46.2227 80.6406C50.9258 76.2734 57.4766 72.9141 65.707 70.3945C73.9375 67.875 83.0078 66.5312 92.75 66.5312ZM75.6172 92.3984V92.5664C75.9531 90.7188 75.7852 89.375 75.2812 88.5352C74.7773 87.6953 73.9375 87.1914 72.5938 86.8555C71.5859 86.8555 70.0742 86.6875 67.8906 86.6875H66.2109L63.8594 98.6133H65.3711C68.5625 98.6133 70.7461 98.4453 71.9219 97.9414C73.7695 97.1016 74.9453 95.2539 75.6172 92.3984ZM55.293 110.539L60.8359 82.3203H72.7617C76.2891 82.3203 78.8086 83.3281 80.4883 85.0078C82 86.8555 82.5039 89.207 82.168 92.2305C81.6641 95.2539 80.3203 97.7734 78.1367 99.7891C76.457 101.469 74.6094 102.309 72.4258 102.645C71.082 102.98 68.5625 103.148 65.2031 103.148L63.0195 102.98L61.5078 110.539H55.293ZM86.5352 74.7617L80.9922 102.98H87.207L90.3984 86.8555H92.582H96.4453C97.2852 87.0234 97.957 87.3594 98.293 87.6953C98.6289 88.0312 98.6289 88.7031 98.6289 89.543C98.6289 90.5508 98.125 92.9023 97.4531 96.5977L96.1094 102.98H102.324L103.668 96.9336C104.508 92.2305 105.012 89.375 105.18 88.0312C105.18 86.3516 104.676 85.0078 103.836 84.168C102.828 83.3281 101.484 82.6562 99.4688 82.3203C98.125 82.3203 96.1094 82.1523 93.2539 82.1523H91.2383L92.75 74.7617H86.5352ZM123.824 92.3984C124.16 90.7188 123.992 89.375 123.488 88.5352C122.984 87.6953 122.145 87.1914 120.801 86.8555C119.793 86.8555 118.281 86.6875 116.098 86.6875H114.418L112.066 98.6133H113.578C116.602 98.6133 118.785 98.4453 120.129 97.9414C121.977 97.1016 123.152 95.2539 123.824 92.3984ZM103.5 110.539L109.043 82.3203H120.969C124.496 82.3203 127.016 83.3281 128.695 85.0078C130.207 86.8555 130.711 89.207 130.207 92.2305C129.703 95.2539 128.359 97.7734 126.344 99.7891C124.664 101.469 122.816 102.309 120.633 102.645C119.289 102.98 116.77 103.148 113.242 103.148L111.227 102.98L109.715 110.539H103.5Z" fill="white"/>
<defs>
<filter id="filter0_d" x="0" y="0" width="187" height="187" filterUnits="userSpaceOnUse" color-interpolation-filters="sRGB">
<feFlood flood-opacity="0" result="BackgroundImageFix"/>
<feColorMatrix in="SourceAlpha" type="matrix" values="0 0 0 0 0 0 0 0 0 0 0 0 0 0 0 0 0 0 127 0"/>
<feOffset dy="4"/>
<feGaussianBlur stdDeviation="2"/>
<feColorMatrix type="matrix" values="0 0 0 0 0 0 0 0 0 0 0 0 0 0 0 0 0 0 0.25 0"/>
<feBlend mode="normal" in2="BackgroundImageFix" result="effect1_dropShadow"/>
<feBlend mode="normal" in="SourceGraphic" in2="effect1_dropShadow" result="shape"/>
</filter>
</defs>
</svg>
