<svg width="357" height="400" viewBox="0 0 357 400" fill="none" xmlns="http://www.w3.org/2000/svg">
<g opacity="0.7">
<path opacity="0.7" d="M320.198 151.175V145.217H293.425V172.767C293.425 174.308 293.976 175.786 294.955 176.876C295.935 177.965 297.264 178.578 298.649 178.578H314.98C316.365 178.578 317.694 177.965 318.673 176.876C319.653 175.786 320.203 174.308 320.203 172.767V166.661C322.049 166.661 323.82 165.845 325.125 164.393C326.43 162.941 327.164 160.971 327.164 158.917C327.164 156.864 326.43 154.894 325.125 153.442C323.82 151.99 322.049 151.174 320.203 151.174L320.198 151.175ZM320.198 163.684V154.154C321.334 154.154 322.423 154.656 323.226 155.549C324.03 156.443 324.481 157.655 324.481 158.919C324.481 160.183 324.03 161.395 323.226 162.288C322.423 163.182 321.334 163.684 320.198 163.684V163.684Z" fill="url(#paint0_linear)"/>
</g>
<path d="M319.336 152.105C318.079 152.105 316.851 152.52 315.805 153.297C314.76 154.074 313.946 155.178 313.465 156.47C312.984 157.762 312.858 159.183 313.103 160.555C313.348 161.926 313.954 163.186 314.842 164.175C315.731 165.164 316.864 165.837 318.096 166.11C319.329 166.383 320.607 166.243 321.768 165.707C322.93 165.172 323.922 164.266 324.62 163.103C325.319 161.941 325.692 160.574 325.692 159.175C325.692 157.3 325.022 155.502 323.83 154.176C322.638 152.85 321.022 152.105 319.336 152.105V152.105ZM319.336 163.527C318.563 163.527 317.807 163.272 317.164 162.794C316.52 162.315 316.019 161.636 315.723 160.841C315.427 160.046 315.35 159.171 315.501 158.327C315.652 157.483 316.024 156.708 316.571 156.1C317.118 155.491 317.815 155.077 318.573 154.909C319.332 154.741 320.118 154.827 320.833 155.157C321.547 155.486 322.158 156.044 322.588 156.759C323.018 157.474 323.247 158.316 323.247 159.176C323.247 160.33 322.835 161.436 322.101 162.252C321.368 163.068 320.373 163.527 319.336 163.527V163.527Z" fill="#6C63FF"/>
<path opacity="0.1" d="M319.336 152.105C318.079 152.105 316.851 152.52 315.805 153.297C314.76 154.074 313.946 155.178 313.465 156.47C312.984 157.762 312.858 159.183 313.103 160.555C313.348 161.926 313.954 163.186 314.842 164.175C315.731 165.164 316.864 165.837 318.096 166.11C319.329 166.383 320.607 166.243 321.768 165.707C322.93 165.172 323.922 164.266 324.62 163.103C325.319 161.941 325.692 160.574 325.692 159.175C325.692 157.3 325.022 155.502 323.83 154.176C322.638 152.85 321.022 152.105 319.336 152.105V152.105ZM319.336 163.527C318.563 163.527 317.807 163.272 317.164 162.794C316.52 162.315 316.019 161.636 315.723 160.841C315.427 160.046 315.35 159.171 315.501 158.327C315.652 157.483 316.024 156.708 316.571 156.1C317.118 155.491 317.815 155.077 318.573 154.909C319.332 154.741 320.118 154.827 320.833 155.157C321.547 155.486 322.158 156.044 322.588 156.759C323.018 157.474 323.247 158.316 323.247 159.176C323.247 160.33 322.835 161.436 322.101 162.252C321.368 163.068 320.373 163.527 319.336 163.527V163.527Z" fill="black"/>
<path d="M294.892 146.669H319.338V171.795C319.338 173.209 318.833 174.565 317.935 175.564C317.036 176.564 315.817 177.126 314.547 177.126H299.684C298.413 177.126 297.194 176.564 296.296 175.564C295.397 174.565 294.892 173.209 294.892 171.795V146.669Z" fill="url(#paint1_linear)"/>
<path opacity="0.1" d="M314.937 146.669V171.823C314.937 173.229 314.434 174.578 313.541 175.573C312.647 176.567 311.434 177.126 310.17 177.126H312.615C313.879 177.126 315.091 176.567 315.985 175.573C316.879 174.578 317.381 173.229 317.381 171.823V146.669H314.937Z" fill="black"/>
<path d="M299.717 126.396C299.508 126.404 299.302 126.462 299.116 126.568C298.929 126.673 298.766 126.823 298.637 127.006C298.316 127.653 298.898 128.382 299.428 128.826C300.459 129.569 301.365 130.508 302.106 131.599C302.467 132.153 302.674 132.812 302.7 133.496C302.726 134.179 302.571 134.856 302.252 135.442C301.302 136.876 299.035 137.184 298.815 138.949C298.676 140.081 299.555 141.048 300.447 141.617C302.648 143.02 305.487 143.394 307.082 145.59C307.464 144.865 307.985 144.241 308.609 143.765C309.232 143.289 309.942 142.972 310.688 142.836C312.159 142.463 313.687 142.491 315.179 142.238C315.423 142.233 315.662 142.164 315.877 142.037C316.092 141.91 316.277 141.729 316.418 141.507C316.836 140.566 315.646 139.437 316.056 138.492C316.368 137.773 317.286 137.829 317.955 137.541C318.477 137.244 318.886 136.751 319.112 136.15C319.337 135.549 319.363 134.878 319.186 134.257C318.792 133.022 318.056 131.959 317.083 131.22C314.55 129.155 311.671 127.674 308.615 126.865C307.156 126.301 305.647 125.911 304.114 125.703C302.631 125.772 301.158 126.004 299.717 126.396Z" fill="url(#paint2_linear)"/>
<path d="M128.153 183.547L77.0426 360.689" stroke="#E0E0E0" stroke-width="8" stroke-miterlimit="10"/>
<path d="M53.9448 88.9631C73.4869 88.9631 89.3289 71.3388 89.3289 49.5981C89.3289 27.8575 73.4869 10.2332 53.9448 10.2332C34.4027 10.2332 18.5607 27.8575 18.5607 49.5981C18.5607 71.3388 34.4027 88.9631 53.9448 88.9631Z" fill="black"/>
<path d="M94.2433 139.809L121.248 171.699C121.816 172.37 122.519 172.883 123.299 173.196C124.079 173.509 124.915 173.612 125.738 173.499C126.56 173.385 127.348 173.057 128.035 172.542C128.723 172.026 129.292 171.338 129.696 170.532L159.606 110.832L151.249 107.551L126.676 146.912C126.676 146.912 80.5458 93.4214 74.093 96.0659C67.6402 98.7104 94.2433 139.809 94.2433 139.809Z" fill="url(#paint3_linear)"/>
<path d="M42.6411 250.249L2.83435 365.063" stroke="#BDBDBD" stroke-width="5" stroke-miterlimit="10"/>
<path d="M62.2996 250.249L102.106 365.063" stroke="#BDBDBD" stroke-width="5" stroke-miterlimit="10"/>
<path d="M52.4704 237.127C77.9834 237.127 98.6658 243.369 98.6658 251.069C98.6658 258.768 77.9806 265.01 52.4704 265.01C26.9601 265.01 6.2749 258.769 6.2749 251.069C6.2749 243.369 26.9601 237.127 52.4704 237.127Z" fill="#6C63FF"/>
<path d="M52.4704 263.917C77.9834 263.917 98.6658 257.675 98.6658 249.975C98.6658 242.276 77.9834 236.034 52.4704 236.034C26.9573 236.034 6.2749 242.276 6.2749 249.975C6.2749 257.675 26.9573 263.917 52.4704 263.917Z" fill="#272727"/>
<path d="M33.0319 275.474L76.6184 290.417" stroke="#BDBDBD" stroke-width="5" stroke-miterlimit="10"/>
<path d="M71.9095 275.474L28.323 290.417" stroke="#BDBDBD" stroke-width="5" stroke-miterlimit="10"/>
<path d="M53.0067 94.9773H66.7209C74.0199 94.9773 81.02 98.203 86.1812 103.945C91.3424 109.687 94.2419 117.474 94.2419 125.594V206.511H15.6104V136.581C15.6104 125.547 19.5504 114.965 26.5635 107.163C33.5767 99.3605 43.0886 94.9773 53.0067 94.9773V94.9773Z" fill="url(#paint4_linear)"/>
<path d="M15.6125 206.51H94.244V254.072H50.5057C45.9234 254.072 41.3861 253.068 37.1526 251.117C32.9192 249.166 29.0726 246.307 25.8325 242.702C22.5923 239.098 20.0221 234.818 18.2686 230.109C16.515 225.399 15.6125 220.351 15.6125 215.253V206.505V206.51Z" fill="url(#paint5_linear)"/>
<path opacity="0.05" d="M16.6739 127.803L64.7561 178.631H117.832V170.977L72.1276 156.215L33.0319 102.503C33.0319 102.503 15.2789 114.703 16.6739 127.803Z" fill="black"/>
<path d="M16.6739 126.709L64.7561 177.537H117.832V169.883L72.1276 155.121L33.0319 101.409C33.0319 101.409 15.2789 113.609 16.6739 126.709Z" fill="url(#paint6_linear)"/>
<path d="M117.833 169.879C117.833 169.879 143.388 172.065 136.508 177.533H117.833V169.879Z" fill="#FDA57D"/>
<path d="M151.251 107.552C151.251 107.552 157.64 86.2295 162.063 92.2436C166.486 98.2578 159.606 110.832 159.606 110.832L151.251 107.552Z" fill="#FDA57D"/>
<path opacity="0.05" d="M15.6125 206.51V209.062L94.244 209.244V206.51H15.6125Z" fill="black"/>
<path d="M76.7793 257.108L129.672 262.47L132.541 382.627L151.477 375.768C151.477 375.768 179.797 239.631 152.792 228.158C125.787 216.684 96.5966 201.573 79.1675 213.887C61.7383 226.201 76.7793 257.108 76.7793 257.108Z" fill="url(#paint7_linear)"/>
<path opacity="0.1" d="M79.9914 220.179C79.9914 220.179 108.987 236.581 112.918 255.17Z" fill="black"/>
<path d="M49.0305 253.53L90.311 290.707L44.1155 373.264L63.2817 379.278C63.2817 379.278 143.387 302.736 126.678 276.492C109.969 250.249 93.2598 219.632 72.6192 219.086C51.9786 218.539 49.0305 253.53 49.0305 253.53Z" fill="url(#paint8_linear)"/>
<path opacity="0.05" d="M113.901 132.701L124.221 152.382L126.679 146.915L113.901 132.701Z" fill="black"/>
<path d="M44.1155 373.264C44.1155 373.264 28.8809 386.386 40.6756 390.759C52.4704 395.133 76.5509 398.414 76.5509 398.414C76.5509 398.414 80.4825 390.759 75.0765 387.479C69.6704 384.198 62.299 385.839 62.299 385.839L63.2817 379.278L44.1155 373.264Z" fill="#272727"/>
<path d="M132.98 382.238C132.98 382.238 126.289 402.885 138.378 399.658C150.467 396.43 172.465 385.046 172.465 385.046C172.465 385.046 172.162 376.236 166.015 376.633C159.868 377.03 154.391 382.759 154.391 382.759L151.745 375.45L132.98 382.238Z" fill="#272727"/>
<path d="M54.9282 75.8415H54.9275C49.4994 75.8415 45.0989 80.7369 45.0989 86.7758V97.7109C45.0989 103.75 49.4994 108.645 54.9275 108.645H54.9282C60.3564 108.645 64.7568 103.75 64.7568 97.7109V86.7758C64.7568 80.7369 60.3564 75.8415 54.9282 75.8415Z" fill="#FDA57D"/>
<path opacity="0.05" d="M54.9275 76.9347C52.3208 76.9347 49.8209 78.0867 47.9777 80.1373C46.1344 82.1879 45.0989 84.9691 45.0989 87.869V91.5843C51.4833 93.9207 58.3725 93.9207 64.7568 91.5843V87.869C64.7568 86.4331 64.5026 85.0112 64.0087 83.6846C63.5147 82.358 62.7908 81.1526 61.8781 80.1373C60.9654 79.1219 59.8819 78.3165 58.6895 77.767C57.497 77.2175 56.219 76.9347 54.9282 76.9347H54.9275Z" fill="black"/>
<path d="M54.9282 92.2437C72.299 92.2437 86.3808 76.5777 86.3808 57.2526C86.3808 37.9276 72.299 22.2616 54.9282 22.2616C37.5574 22.2616 23.4756 37.9276 23.4756 57.2526C23.4756 76.5777 37.5574 92.2437 54.9282 92.2437Z" fill="#FDA57D"/>
<path opacity="0.05" d="M23.4756 55.6642C23.4756 55.6642 31.3388 57.9182 35.7621 47.9764C40.1853 38.0346 43.6252 32.6109 61.8101 38.4864C79.9949 44.3618 83.6514 45.0778 84.5255 39.5223C85.123 35.7257 78.657 26.5053 74.5019 21.0459C73.3834 19.6719 72.0126 18.5812 70.4824 17.8476C68.9522 17.1139 67.2982 16.7545 65.6323 16.7936H45.1003L32.8139 23.1208L23.4763 32.1591L21.5102 44.3611L23.4756 55.6642Z" fill="black"/>
<path d="M23.4756 54.571C23.4756 54.571 31.3388 56.8249 35.7621 46.8832C40.1853 36.9414 43.6252 31.5176 61.8101 37.3931C79.9949 43.2686 83.6514 43.9846 84.5255 38.4291C85.123 34.6324 78.657 25.412 74.5019 19.9526C73.3834 18.5786 72.0126 17.4879 70.4824 16.7543C68.9522 16.0207 67.2982 15.6613 65.6323 15.7004H45.1003L32.8139 22.0276L23.4763 31.0659L21.5102 43.2678L23.4756 54.571Z" fill="black"/>
<path d="M26.6703 61.6257C28.4347 61.6257 29.865 58.4436 29.865 54.5183C29.865 50.5929 28.4347 47.4108 26.6703 47.4108C24.9059 47.4108 23.4756 50.5929 23.4756 54.5183C23.4756 58.4436 24.9059 61.6257 26.6703 61.6257Z" fill="#FDA57D"/>
<path d="M24.3866 36.2301C23.6574 31.6532 22.9415 26.847 24.2689 22.4382C24.9189 20.3398 26.0014 18.4398 27.4296 16.8901C28.8579 15.3405 30.5924 14.1842 32.4942 13.5138C34.9723 12.6661 37.6432 12.684 40.106 11.7821C43.5716 10.5121 46.2885 7.56548 49.2994 5.27355C51.96 3.24782 54.8942 1.70747 57.9913 0.710611C60.7772 -0.184311 64.0506 -0.529109 66.319 1.47614C68.228 3.1637 68.8911 6.0569 70.4686 8.12568C72.3045 10.5331 75.1565 11.5767 77.6464 13.0915C80.7493 15.023 83.3825 17.7663 85.3186 21.0841C87.2546 24.4019 88.435 28.1944 88.7579 32.1336C88.8435 33.3075 88.7579 34.7014 87.8657 35.3391C87.3127 35.652 86.6897 35.7786 86.073 35.7032C73.5024 35.5033 60.9172 35.3026 48.3981 34.0187C44.5178 33.4915 40.6107 33.2448 36.7016 33.2803C30.6574 33.5425 24.7553 35.3951 19.4793 38.6863" fill="black"/>
<path d="M193.352 220.27C193.499 220.276 193.644 220.233 193.768 220.146C193.893 220.059 193.991 219.933 194.051 219.784C194.111 219.635 194.129 219.469 194.104 219.308C194.078 219.147 194.01 218.998 193.908 218.88C193.806 218.763 193.674 218.682 193.531 218.648C193.387 218.614 193.237 218.628 193.101 218.69C192.965 218.751 192.848 218.856 192.766 218.992C192.684 219.127 192.64 219.287 192.64 219.451C192.64 219.663 192.714 219.867 192.847 220.02C192.98 220.173 193.161 220.263 193.352 220.27Z" fill="url(#paint9_linear)"/>
<path d="M301.516 183.547L352.627 385.889" stroke="#E0E0E0" stroke-width="8" stroke-miterlimit="10"/>
<path d="M352.834 177.622H76.8357V189.588H352.834V177.622Z" fill="#E0E0E0"/>
<path d="M186.88 174.8H148.057C146.292 174.8 144.862 176.391 144.862 178.353C144.862 180.316 146.292 181.907 148.057 181.907H186.88C188.644 181.907 190.075 180.316 190.075 178.353C190.075 176.391 188.644 174.8 186.88 174.8Z" fill="#323238"/>
<g opacity="0.7">
<path opacity="0.7" d="M265.102 95.5568H192.038C181.183 95.5568 172.383 105.346 172.383 117.422V160.131C172.383 172.207 181.183 181.996 192.038 181.996H265.102C275.957 181.996 284.757 172.207 284.757 160.131V117.422C284.757 105.346 275.957 95.5568 265.102 95.5568Z" fill="url(#paint10_linear)"/>
</g>
<path d="M262.148 97.1514H193.077C182.754 97.1514 174.387 106.461 174.387 117.944V161.203C174.387 172.686 182.754 181.995 193.077 181.995H262.148C272.47 181.995 280.838 172.686 280.838 161.203V117.944C280.838 106.461 272.47 97.1514 262.148 97.1514Z" fill="#3E3F49"/>
<path d="M263.623 97.1514H194.551C184.229 97.1514 175.861 106.461 175.861 117.944V161.203C175.861 172.686 184.229 181.995 194.551 181.995H263.623C273.945 181.995 282.313 172.686 282.313 161.203V117.944C282.313 106.461 273.945 97.1514 263.623 97.1514Z" fill="url(#paint11_linear)"/>
<path d="M216.995 136.75H217.909C219.667 140.758 223.605 143.5 228.245 143.5C232.816 143.5 236.753 140.758 238.511 136.75H239.495C240.058 136.75 240.62 136.258 240.62 135.625V128.875C240.62 128.313 240.058 127.75 239.495 127.75H238.511C236.753 123.813 232.816 121 228.245 121C223.605 121 219.667 123.813 217.909 127.75H216.995C216.363 127.75 215.87 128.313 215.87 128.875V135.625C215.87 136.258 216.363 136.75 216.995 136.75ZM219.808 130.563C219.808 129.016 221.284 127.75 223.183 127.75H233.308C235.136 127.75 236.683 129.016 236.683 130.563V132.25C236.683 135.977 233.659 139 229.933 139H226.558C222.831 139 219.808 135.977 219.808 132.25V130.563ZM224.87 135.625L225.714 133.094L228.245 132.25L225.714 131.407L224.87 128.875L224.027 131.407L221.495 132.25L224.027 133.094L224.87 135.625ZM235.488 143.641C233.378 144.977 230.917 145.75 228.245 145.75C225.503 145.75 223.042 144.977 220.933 143.641C216.152 144.133 212.495 148.071 212.495 152.992V153.625C212.495 155.524 213.972 157 215.87 157H221.495V152.5C221.495 151.305 222.48 150.25 223.745 150.25H232.745C233.941 150.25 234.995 151.305 234.995 152.5V157H240.62C242.449 157 243.995 155.524 243.995 153.625V152.992C243.995 148.071 240.269 144.133 235.488 143.641ZM231.62 152.5C230.988 152.5 230.495 153.063 230.495 153.625C230.495 154.258 230.988 154.75 231.62 154.75C232.183 154.75 232.745 154.258 232.745 153.625C232.745 153.063 232.183 152.5 231.62 152.5ZM224.87 152.5C224.238 152.5 223.745 153.063 223.745 153.625V157H225.995V153.625C225.995 153.063 225.433 152.5 224.87 152.5Z" fill="#E0E0E0"/>
<defs>
<linearGradient id="paint0_linear" x1="310.295" y1="178.578" x2="310.295" y2="145.217" gradientUnits="userSpaceOnUse">
<stop stop-color="#808080" stop-opacity="0.251"/>
<stop offset="0.535" stop-color="#808080" stop-opacity="0.122"/>
<stop offset="1" stop-color="#808080" stop-opacity="0.102"/>
</linearGradient>
<linearGradient id="paint1_linear" x1="307.115" y1="146.669" x2="307.115" y2="177.126" gradientUnits="userSpaceOnUse">
<stop stop-color="#6C63FF"/>
<stop offset="1" stop-color="#3E3A8A"/>
</linearGradient>
<linearGradient id="paint2_linear" x1="308.924" y1="125.703" x2="308.924" y2="145.59" gradientUnits="userSpaceOnUse">
<stop stop-color="#EEEEEE"/>
<stop offset="1" stop-color="#8B8B8B"/>
</linearGradient>
<linearGradient id="paint3_linear" x1="116.345" y1="95.971" x2="116.345" y2="173.543" gradientUnits="userSpaceOnUse">
<stop stop-color="#6C63FF"/>
<stop offset="1" stop-color="#363280"/>
</linearGradient>
<linearGradient id="paint4_linear" x1="54.9262" y1="94.9773" x2="54.9262" y2="206.511" gradientUnits="userSpaceOnUse">
<stop stop-color="#6C63FF"/>
<stop offset="1" stop-color="#363280"/>
</linearGradient>
<linearGradient id="paint5_linear" x1="54.9283" y1="206.505" x2="54.9283" y2="254.072" gradientUnits="userSpaceOnUse">
<stop stop-color="#39447A"/>
<stop offset="1" stop-color="#39447A"/>
</linearGradient>
<linearGradient id="paint6_linear" x1="67.2139" y1="101.409" x2="67.2139" y2="177.537" gradientUnits="userSpaceOnUse">
<stop stop-color="#6C63FF"/>
<stop offset="1" stop-color="#363280"/>
</linearGradient>
<linearGradient id="paint7_linear" x1="117.606" y1="209.297" x2="117.606" y2="382.627" gradientUnits="userSpaceOnUse">
<stop stop-color="#39447A"/>
<stop offset="1" stop-color="#171C34"/>
</linearGradient>
<linearGradient id="paint8_linear" x1="86.543" y1="219.079" x2="86.543" y2="379.278" gradientUnits="userSpaceOnUse">
<stop stop-color="#39447A"/>
<stop offset="1" stop-color="#1F2441"/>
</linearGradient>
<linearGradient id="paint9_linear" x1="193.377" y1="220.271" x2="193.377" y2="218.63" gradientUnits="userSpaceOnUse">
<stop stop-color="#808080" stop-opacity="0.251"/>
<stop offset="0.535" stop-color="#808080" stop-opacity="0.122"/>
<stop offset="1" stop-color="#808080" stop-opacity="0.102"/>
</linearGradient>
<linearGradient id="paint10_linear" x1="228.57" y1="181.996" x2="228.57" y2="95.5568" gradientUnits="userSpaceOnUse">
<stop stop-color="#808080" stop-opacity="0.251"/>
<stop offset="0.535" stop-color="#808080" stop-opacity="0.122"/>
<stop offset="1" stop-color="#808080" stop-opacity="0.102"/>
</linearGradient>
<linearGradient id="paint11_linear" x1="229.087" y1="97.1514" x2="229.087" y2="181.995" gradientUnits="userSpaceOnUse">
<stop stop-color="#535461"/>
<stop offset="1" stop-color="#24252C"/>
</linearGradient>
</defs>
</svg>
