<svg width="187" height="187" viewBox="0 0 187 187" fill="none" xmlns="http://www.w3.org/2000/svg">
<g filter="url(#filter0_d)">
<circle cx="93.5" cy="89.5" r="89.5" fill="black"/>
</g>
<path d="M83.6047 54.7969C89.3157 53.7891 95.3625 53.7891 101.577 54.7969C103.929 55.3008 106.113 56.4766 107.792 58.1562C109.472 59.8359 110.48 61.8516 110.48 64.2031V81.3359C110.48 83.8555 109.472 86.0391 107.792 87.7188C106.113 89.5664 103.929 90.4062 101.577 90.4062H83.6047C80.5813 90.4062 77.8938 91.582 75.7102 93.7656C73.3586 96.1172 72.3508 98.6367 72.3508 101.492V109.723H66.136C63.6165 109.723 61.6008 109.051 60.0891 107.371C58.4094 105.691 57.2336 103.508 56.5618 100.652C55.7219 97.293 55.386 94.2695 55.386 91.582C55.386 88.8945 55.7219 85.8711 56.5618 82.5117C57.2336 79.6562 58.7454 77.4727 60.761 75.793C62.7766 74.1133 65.1282 73.2734 67.8157 73.2734H92.5071V71.0898H74.5344V64.2031C74.5344 61.5156 75.0383 59.5 76.2141 58.1562C77.5579 56.6445 79.9094 55.4688 83.6047 54.7969ZM82.429 59.668C81.4211 59.668 80.7493 60.0039 80.0774 60.6758C79.4055 61.3477 79.0696 62.1875 79.0696 63.1953C79.0696 64.2031 79.4055 64.875 80.0774 65.5469C80.7493 66.2188 81.4211 66.5547 82.429 66.5547C83.2688 66.5547 84.1086 66.2188 84.7805 65.5469C85.4524 64.875 85.7883 64.2031 85.7883 63.1953C85.7883 62.1875 85.4524 61.3477 84.7805 60.6758C84.1086 60.0039 83.2688 59.668 82.429 59.668ZM113.503 73.2734H120.222C124.589 73.2734 127.613 76.4648 129.292 82.5117C130.132 86.207 130.636 89.3984 130.636 92.2539C130.636 95.1094 130.132 97.9648 129.292 100.652C128.284 103.844 127.109 106.027 126.101 107.203C124.589 108.883 122.573 109.723 120.222 109.723H93.3469V112.074H111.32V118.961C111.32 123.328 108.296 126.352 102.249 128.031C98.8899 129.039 95.8665 129.375 93.011 129.375C90.1555 129.375 87.3 129.039 84.4446 128.031C81.7571 127.359 79.5735 126.184 78.0618 124.84C76.2141 123.16 75.3743 121.312 75.3743 118.961V101.828C75.3743 99.4766 76.2141 97.293 78.0618 95.4453C79.7415 93.5977 81.925 92.5898 84.4446 92.5898H102.417C105.273 92.5898 107.792 91.582 110.144 89.2305C112.327 87.0469 113.503 84.3594 113.503 81.3359V73.2734ZM103.425 116.609C102.417 116.609 101.745 116.945 101.073 117.617C100.402 118.289 100.066 119.129 100.066 120.137C100.066 121.145 100.402 121.816 101.073 122.488C101.745 123.16 102.417 123.496 103.425 123.496C104.433 123.496 105.105 123.16 105.777 122.488C106.448 121.816 106.784 121.145 106.784 120.137C106.784 119.129 106.448 118.289 105.777 117.617C105.105 116.945 104.433 116.609 103.425 116.609Z" fill="white"/>
<defs>
<filter id="filter0_d" x="0" y="0" width="187" height="187" filterUnits="userSpaceOnUse" color-interpolation-filters="sRGB">
<feFlood flood-opacity="0" result="BackgroundImageFix"/>
<feColorMatrix in="SourceAlpha" type="matrix" values="0 0 0 0 0 0 0 0 0 0 0 0 0 0 0 0 0 0 127 0"/>
<feOffset dy="4"/>
<feGaussianBlur stdDeviation="2"/>
<feColorMatrix type="matrix" values="0 0 0 0 0 0 0 0 0 0 0 0 0 0 0 0 0 0 0.25 0"/>
<feBlend mode="normal" in2="BackgroundImageFix" result="effect1_dropShadow"/>
<feBlend mode="normal" in="SourceGraphic" in2="effect1_dropShadow" result="shape"/>
</filter>
</defs>
</svg>
