<svg width="187" height="187" viewBox="0 0 187 187" fill="none" xmlns="http://www.w3.org/2000/svg">
<g filter="url(#filter0_d)">
<circle cx="93.5" cy="89.5" r="89.5" fill="#DE51D8"/>
</g>
<path d="M120.148 82.4805C124.851 84.1602 128.546 86.1758 131.57 88.5273C134.425 90.8789 135.937 93.2305 135.937 95.75C135.937 98.4375 134.257 100.957 131.234 103.309C128.21 105.828 124.179 107.844 119.14 109.355L117.628 109.859L118.132 112.211C119.14 117.082 119.14 121.281 118.468 124.977C117.796 128.672 116.284 131.191 114.101 132.367C111.749 133.711 109.062 133.711 105.702 132.535C102.343 131.527 98.9836 129.344 95.2883 126.32L93.1047 124.137L91.2571 125.816C87.5618 129.176 83.8665 131.359 80.3391 132.535C76.8118 133.879 73.9563 133.879 71.7727 132.535C69.4211 131.191 68.0774 128.84 67.4055 125.312C66.7336 121.953 66.7336 117.754 67.7415 113.051L68.4133 110.027L66.0618 109.355C61.1907 107.676 57.3274 105.66 54.304 103.141C51.2805 100.789 49.9368 98.2695 49.9368 95.75C49.9368 93.3984 51.2805 90.8789 54.136 88.5273C56.8235 86.1758 60.6868 84.3281 65.3899 82.6484L68.4133 81.6406L67.9094 78.7852C66.9016 74.082 66.7336 69.8828 67.4055 66.3555C68.0774 62.9961 69.4211 60.6445 71.7727 59.3008C73.9563 57.957 76.8118 57.957 80.5071 59.1328C84.0344 60.4766 87.7297 62.8281 91.593 66.1875L92.9368 67.5312L95.1204 65.5156C98.8157 62.3242 102.343 60.1406 105.702 58.9648C109.062 57.7891 111.749 57.7891 114.101 59.1328C116.284 60.4766 117.796 62.9961 118.468 66.6914C119.14 70.3867 118.972 74.7539 117.964 79.793L117.46 81.6406C118.3 81.9766 119.14 82.3125 120.148 82.4805ZM97.4719 68.2031L95.4563 70.0508C97.9758 72.9062 100.327 75.9297 102.679 78.9531C106.374 79.2891 110.07 79.9609 113.933 80.8008L114.269 79.1211C115.109 74.9219 115.277 71.2266 114.941 68.2031C114.605 65.1797 113.597 63.1641 112.253 62.3242C110.741 61.4844 108.726 61.6523 106.038 62.6602C103.351 63.8359 100.495 65.6836 97.4719 68.2031ZM75.636 99.9492C74.4602 102.637 73.6204 105.156 72.9485 107.508C75.3 108.18 77.9875 108.516 80.675 108.684C79.8352 107.676 78.9954 106.164 77.9875 104.484C77.3157 103.141 76.4758 101.629 75.636 99.9492ZM75.636 91.5508C76.3079 90.207 76.9797 88.8633 77.9875 87.1836C78.6594 85.8398 79.6672 84.4961 80.675 82.8164C77.8196 83.1523 75.3 83.6562 72.9485 84.1602C73.6204 86.6797 74.6282 89.1992 75.636 91.5508ZM77.4836 95.75C78.6594 98.2695 79.8352 100.621 81.179 102.805C82.3547 104.988 83.6985 107.172 85.2102 109.188C87.7297 109.355 90.2493 109.355 92.9368 109.355C95.6243 109.355 98.1438 109.355 100.663 109.02C102.175 106.836 103.519 104.652 104.863 102.469C106.038 100.285 107.214 98.1016 108.39 95.75C107.046 93.3984 105.87 91.0469 104.695 88.8633C103.351 86.6797 102.007 84.4961 100.663 82.4805C97.9758 82.3125 95.4563 82.1445 92.9368 82.1445C90.2493 82.1445 87.7297 82.3125 85.2102 82.4805C83.5305 84.832 82.1868 86.8477 81.179 88.8633C79.8352 91.3828 78.4915 93.7344 77.4836 95.75ZM107.886 104.316C106.878 106.164 105.87 107.676 105.198 108.684C107.886 108.348 110.406 108.012 113.093 107.34C112.253 104.82 111.413 102.301 110.406 99.9492C109.398 101.629 108.558 103.141 107.886 104.316ZM110.238 91.5508C111.245 89.1992 112.253 86.6797 112.925 84.1602C110.573 83.6562 108.054 83.1523 105.366 82.8164C106.038 84.3281 106.878 85.8398 107.886 87.1836C108.558 88.3594 109.23 89.8711 110.238 91.5508ZM92.9368 72.5703C91.0891 74.5859 89.4094 76.6016 87.8977 78.6172C91.2571 78.6172 94.6165 78.6172 97.9758 78.6172C96.2961 76.6016 94.6165 74.5859 92.9368 72.5703ZM73.4524 62.3242C72.1086 63.1641 71.1008 65.0117 70.7649 67.8672C70.429 70.7227 70.5969 74.082 71.4368 78.1133L71.9407 80.6328C75.636 79.9609 79.4993 79.2891 83.1946 78.9531C85.3782 75.9297 87.7297 72.9062 90.4172 70.0508L89.2415 68.875C85.8821 66.0195 82.8586 64.0039 80.0032 62.8281C76.9797 61.6523 74.7961 61.4844 73.4524 62.3242ZM69.4211 106.668C70.429 102.973 71.9407 99.2773 73.6204 95.75C71.9407 92.3906 70.429 88.6953 69.4211 85L66.5657 86.0078C62.5344 87.3516 59.511 89.0312 57.1594 90.7109C54.8079 92.5586 53.6321 94.2383 53.6321 95.75C53.8 97.9336 54.8079 99.6133 56.6555 100.789C59.343 102.805 62.8704 104.652 67.2375 105.996C67.9094 106.332 68.7493 106.5 69.4211 106.668ZM88.9055 123.129L90.5852 121.617C87.8977 118.762 85.3782 115.738 83.3625 112.547C79.4993 112.379 75.636 111.875 71.9407 111.035L71.2688 113.723C70.429 117.754 70.261 121.113 70.7649 123.801C71.1008 126.656 72.1086 128.504 73.6204 129.176C75.468 130.016 77.4836 130.016 79.4993 129.008C82.8586 127.664 86.05 125.816 88.9055 123.129ZM93.1047 118.93C94.7844 116.914 96.4641 114.898 97.9758 112.883C96.2961 113.051 94.6165 113.051 92.9368 113.051C91.2571 113.051 89.5774 113.051 88.0657 112.883C89.5774 115.234 91.2571 117.25 93.1047 118.93ZM115.109 123.969H114.941C115.445 120.273 115.277 116.578 114.605 112.883L114.101 110.867C110.406 111.707 106.542 112.211 102.679 112.547C100.495 115.738 98.1438 118.762 95.6243 121.617L97.8079 123.465C100.831 126.152 103.519 128 106.206 129.008C108.894 130.016 110.909 130.184 112.253 129.344C113.933 128 114.773 126.32 115.109 123.969ZM118.132 105.996C122.163 104.652 125.523 102.973 128.21 100.957C130.898 99.1094 132.241 97.4297 132.241 95.75C132.241 94.2383 130.898 92.5586 128.546 90.7109C126.027 88.8633 122.835 87.1836 118.972 85.8398L116.452 85.168C115.277 88.8633 113.933 92.3906 112.421 95.75C114.101 99.4453 115.445 102.973 116.62 106.332C116.956 106.332 117.46 106.332 118.132 105.996ZM92.9368 88.0234C90.7532 88.0234 88.9055 88.8633 87.3938 90.375C85.8821 91.8867 85.2102 93.7344 85.2102 95.75C85.2102 97.9336 85.8821 99.7812 87.3938 101.293C88.9055 102.805 90.7532 103.477 92.9368 103.477C94.9524 103.477 96.8 102.805 98.3118 101.293C99.8235 99.7812 100.663 97.9336 100.663 95.75C100.663 93.7344 99.8235 91.8867 98.3118 90.375C96.8 88.8633 94.9524 88.0234 92.9368 88.0234Z" fill="black"/>
<defs>
<filter id="filter0_d" x="0" y="0" width="187" height="187" filterUnits="userSpaceOnUse" color-interpolation-filters="sRGB">
<feFlood flood-opacity="0" result="BackgroundImageFix"/>
<feColorMatrix in="SourceAlpha" type="matrix" values="0 0 0 0 0 0 0 0 0 0 0 0 0 0 0 0 0 0 127 0"/>
<feOffset dy="4"/>
<feGaussianBlur stdDeviation="2"/>
<feColorMatrix type="matrix" values="0 0 0 0 0 0 0 0 0 0 0 0 0 0 0 0 0 0 0.25 0"/>
<feBlend mode="normal" in2="BackgroundImageFix" result="effect1_dropShadow"/>
<feBlend mode="normal" in="SourceGraphic" in2="effect1_dropShadow" result="shape"/>
</filter>
</defs>
</svg>
